<?xml version="1.0" encoding="UTF-8" standalone="no"?>
<!DOCTYPE svg PUBLIC "-//W3C//DTD SVG 1.1//EN"
 "http://www.w3.org/Graphics/SVG/1.1/DTD/svg11.dtd">
<!-- Generated by graphviz version 2.40.1 (20161225.0304)
 -->
<!-- Title: prisma Pages: 1 -->
<svg width="566pt" height="875pt"
 viewBox="0.00 0.00 566.00 875.20" xmlns="http://www.w3.org/2000/svg" xmlns:xlink="http://www.w3.org/1999/xlink">
<g id="graph0" class="graph" transform="scale(1 1) rotate(0) translate(4 871.2)">
<title>prisma</title>
<polygon fill="#ffffff" stroke="transparent" points="-4,4 -4,-871.2 562,-871.2 562,4 -4,4"/>
<!-- raw -->
<g id="node1" class="node">
<title>raw</title>
<path fill="#d6eaf8" stroke="#1a5276" stroke-width="1.2" d="M290,-867.2C290,-867.2 12,-867.2 12,-867.2 6,-867.2 0,-861.2 0,-855.2 0,-855.2 0,-807.2 0,-807.2 0,-801.2 6,-795.2 12,-795.2 12,-795.2 290,-795.2 290,-795.2 296,-795.2 302,-801.2 302,-807.2 302,-807.2 302,-855.2 302,-855.2 302,-861.2 296,-867.2 290,-867.2"/>
<text text-anchor="middle" x="151" y="-850.1" font-family="Helvetica,sans-Serif" font-weight="bold" font-size="9.00" fill="#000000">THESIS METADATA — RAW COLLECTION</text>
<text text-anchor="middle" x="151" y="-839.3" font-family="Helvetica,sans-Serif" font-weight="bold" font-size="9.00" fill="#000000">Scripts 01&#45;1 through 01&#45;6</text>
<text text-anchor="middle" x="151" y="-828.5" font-family="Helvetica,sans-Serif" font-weight="bold" font-size="9.00" fill="#000000">8 institutions (UBC, Alberta, Toronto, McGill,</text>
<text text-anchor="middle" x="151" y="-817.7" font-family="Helvetica,sans-Serif" font-weight="bold" font-size="9.00" fill="#000000"> Manitoba, Guelph, Regina, WLU)</text>
<text text-anchor="middle" x="151" y="-806.9" font-family="Helvetica,sans-Serif" font-weight="bold" font-size="9.00" fill="#000000">n = 19,641 records</text>
</g>
<!-- clean_step -->
<g id="node2" class="node">
<title>clean_step</title>
<path fill="#fef9e7" stroke="#7d6608" stroke-width="1.2" d="M290,-747.0016C290,-747.0016 12,-747.0016 12,-747.0016 6,-747.0016 0,-741.0016 0,-735.0016 0,-735.0016 0,-708.1984 0,-708.1984 0,-702.1984 6,-696.1984 12,-696.1984 12,-696.1984 290,-696.1984 290,-696.1984 296,-696.1984 302,-702.1984 302,-708.1984 302,-708.1984 302,-735.0016 302,-735.0016 302,-741.0016 296,-747.0016 290,-747.0016"/>
<text text-anchor="middle" x="151" y="-729.7" font-family="Helvetica,sans-Serif" font-size="9.00" fill="#000000">02_clean_theses.R</text>
<text text-anchor="middle" x="151" y="-718.9" font-family="Helvetica,sans-Serif" font-size="9.00" fill="#000000">Standardise schema; filter to LDP&#45;relevant</text>
<text text-anchor="middle" x="151" y="-708.1" font-family="Helvetica,sans-Serif" font-size="9.00" fill="#000000">institutions and degree types (masters + doctoral)</text>
</g>
<!-- raw&#45;&gt;clean_step -->
<g id="edge1" class="edge">
<title>raw&#45;&gt;clean_step</title>
<path fill="none" stroke="#000000" d="M151,-795.0091C151,-795.0091 151,-754.0091 151,-754.0091"/>
<polygon fill="#000000" stroke="#000000" points="153.4501,-754.0091 151,-747.0091 148.5501,-754.0092 153.4501,-754.0091"/>
</g>
<!-- clean -->
<g id="node3" class="node">
<title>clean</title>
<path fill="#d6eaf8" stroke="#1a5276" stroke-width="1.2" d="M290,-648.2016C290,-648.2016 12,-648.2016 12,-648.2016 6,-648.2016 0,-642.2016 0,-636.2016 0,-636.2016 0,-609.3984 0,-609.3984 0,-603.3984 6,-597.3984 12,-597.3984 12,-597.3984 290,-597.3984 290,-597.3984 296,-597.3984 302,-603.3984 302,-609.3984 302,-609.3984 302,-636.2016 302,-636.2016 302,-642.2016 296,-648.2016 290,-648.2016"/>
<text text-anchor="middle" x="151" y="-630.9" font-family="Helvetica,sans-Serif" font-size="9.00" fill="#000000">CLEAN THESES</text>
<text text-anchor="middle" x="151" y="-620.1" font-family="Helvetica,sans-Serif" font-size="9.00" fill="#000000">8 institutions</text>
<text text-anchor="middle" x="151" y="-609.3" font-family="Helvetica,sans-Serif" font-size="9.00" fill="#000000">n = 16,900 records</text>
</g>
<!-- clean_step&#45;&gt;clean -->
<g id="edge2" class="edge">
<title>clean_step&#45;&gt;clean</title>
<path fill="none" stroke="#000000" d="M151,-696.1565C151,-696.1565 151,-655.1572 151,-655.1572"/>
<polygon fill="#000000" stroke="#000000" points="153.4501,-655.1572 151,-648.1572 148.5501,-655.1573 153.4501,-655.1572"/>
</g>
<!-- e_clean -->
<g id="node4" class="node">
<title>e_clean</title>
<path fill="#fadbd8" stroke="#922b21" stroke-width="1.2" d="M546,-752.3003C546,-752.3003 354,-752.3003 354,-752.3003 348,-752.3003 342,-746.3003 342,-740.3003 342,-740.3003 342,-702.8997 342,-702.8997 342,-696.8997 348,-690.8997 354,-690.8997 354,-690.8997 546,-690.8997 546,-690.8997 552,-690.8997 558,-696.8997 558,-702.8997 558,-702.8997 558,-740.3003 558,-740.3003 558,-746.3003 552,-752.3003 546,-752.3003"/>
<text text-anchor="middle" x="450" y="-735.1" font-family="Helvetica,sans-Serif" font-size="9.00" fill="#000000">Excluded at cleaning</text>
<text text-anchor="middle" x="450" y="-724.3" font-family="Helvetica,sans-Serif" font-size="9.00" fill="#000000">n = 2,741</text>
<text text-anchor="middle" x="450" y="-713.5" font-family="Helvetica,sans-Serif" font-size="9.00" fill="#000000">(non&#45;LDP institutions; ineligible degree types;</text>
<text text-anchor="middle" x="450" y="-702.7" font-family="Helvetica,sans-Serif" font-size="9.00" fill="#000000">missing / malformed records)</text>
</g>
<!-- clean_step&#45;&gt;e_clean -->
<g id="edge9" class="edge">
<title>clean_step&#45;&gt;e_clean</title>
<path fill="none" stroke="#a93226" stroke-dasharray="5,2" d="M302.2519,-713C302.2519,-713 334.7503,-713 334.7503,-713"/>
<polygon fill="#a93226" stroke="#a93226" points="334.7504,-715.4501 341.7503,-713 334.7503,-710.5501 334.7504,-715.4501"/>
</g>
<!-- clean_step&#45;&gt;e_clean -->
<!-- kw_step -->
<g id="node5" class="node">
<title>kw_step</title>
<path fill="#fef9e7" stroke="#7d6608" stroke-width="1.2" d="M290,-543.602C290,-543.602 12,-543.602 12,-543.602 6,-543.602 0,-537.602 0,-531.602 0,-531.602 0,-516.398 0,-516.398 0,-510.398 6,-504.398 12,-504.398 12,-504.398 290,-504.398 290,-504.398 296,-504.398 302,-510.398 302,-516.398 302,-516.398 302,-531.602 302,-531.602 302,-537.602 296,-543.602 290,-543.602"/>
<text text-anchor="middle" x="151" y="-526.7" font-family="Helvetica,sans-Serif" font-size="9.00" fill="#000000">Keyword&#45;seeded label assignment</text>
<text text-anchor="middle" x="151" y="-515.9" font-family="Helvetica,sans-Serif" font-size="9.00" fill="#000000">(thesis_classification_model_training.qmd)</text>
</g>
<!-- clean&#45;&gt;kw_step -->
<g id="edge3" class="edge">
<title>clean&#45;&gt;kw_step</title>
<path fill="none" stroke="#000000" d="M151,-597.3565C151,-597.3565 151,-550.7451 151,-550.7451"/>
<polygon fill="#000000" stroke="#000000" points="153.4501,-550.7451 151,-543.7451 148.5501,-550.7451 153.4501,-550.7451"/>
</g>
<!-- kw_pos -->
<g id="node6" class="node">
<title>kw_pos</title>
<path fill="#d5f5e3" stroke="#1d6a39" stroke-width="1.2" d="M546,-554.7003C546,-554.7003 354,-554.7003 354,-554.7003 348,-554.7003 342,-548.7003 342,-542.7003 342,-542.7003 342,-505.2997 342,-505.2997 342,-499.2997 348,-493.2997 354,-493.2997 354,-493.2997 546,-493.2997 546,-493.2997 552,-493.2997 558,-499.2997 558,-505.2997 558,-505.2997 558,-542.7003 558,-542.7003 558,-548.7003 552,-554.7003 546,-554.7003"/>
<text text-anchor="middle" x="450" y="-537.5" font-family="Helvetica,sans-Serif" font-size="9.00" fill="#000000">Positive EEE labels</text>
<text text-anchor="middle" x="450" y="-526.7" font-family="Helvetica,sans-Serif" font-size="9.00" fill="#000000">(≥ 2 EEE keyword matches,</text>
<text text-anchor="middle" x="450" y="-515.9" font-family="Helvetica,sans-Serif" font-size="9.00" fill="#000000">no near&#45;neighbour flags)</text>
<text text-anchor="middle" x="450" y="-505.1" font-family="Helvetica,sans-Serif" font-size="9.00" fill="#000000">n = 350</text>
</g>
<!-- kw_step&#45;&gt;kw_pos -->
<g id="edge10" class="edge">
<title>kw_step&#45;&gt;kw_pos</title>
<path fill="none" stroke="#1d6a39" stroke-dasharray="5,2" d="M302.2519,-527C302.2519,-527 334.7503,-527 334.7503,-527"/>
<polygon fill="#1d6a39" stroke="#1d6a39" points="334.7504,-529.4501 341.7503,-527 334.7503,-524.5501 334.7504,-529.4501"/>
</g>
<!-- kw_step&#45;&gt;kw_pos -->
<!-- kw_neg -->
<g id="node7" class="node">
<title>kw_neg</title>
<path fill="#fadbd8" stroke="#922b21" stroke-width="1.2" d="M546,-450.4C546,-450.4 354,-450.4 354,-450.4 348,-450.4 342,-444.4 342,-438.4 342,-438.4 342,-390.4 342,-390.4 342,-384.4 348,-378.4 354,-378.4 354,-378.4 546,-378.4 546,-378.4 552,-378.4 558,-384.4 558,-390.4 558,-390.4 558,-438.4 558,-438.4 558,-444.4 552,-450.4 546,-450.4"/>
<text text-anchor="middle" x="450" y="-433.3" font-family="Helvetica,sans-Serif" font-size="9.00" fill="#000000">Negative labels for training</text>
<text text-anchor="middle" x="450" y="-422.5" font-family="Helvetica,sans-Serif" font-size="9.00" fill="#000000">Clear negatives: n = 200</text>
<text text-anchor="middle" x="450" y="-411.7" font-family="Helvetica,sans-Serif" font-size="9.00" fill="#000000">Near&#45;neighbour (geology/env&#45;soc): n = 100</text>
<text text-anchor="middle" x="450" y="-400.9" font-family="Helvetica,sans-Serif" font-size="9.00" fill="#000000">General negatives: n = 50</text>
<text text-anchor="middle" x="450" y="-390.1" font-family="Helvetica,sans-Serif" font-size="9.00" fill="#000000">Total: n = 350</text>
</g>
<!-- kw_step&#45;&gt;kw_neg -->
<g id="edge11" class="edge">
<title>kw_step&#45;&gt;kw_neg</title>
<path fill="none" stroke="#a93226" stroke-dasharray="5,2" d="M302.1115,-520C319.9694,-520 332,-520 332,-520 332,-520 332,-424 332,-424 332,-424 334.6564,-424 334.6564,-424"/>
<polygon fill="#a93226" stroke="#a93226" points="334.6565,-426.4501 341.6564,-424 334.6564,-421.5501 334.6565,-426.4501"/>
</g>
<!-- kw_ambig -->
<g id="node8" class="node">
<title>kw_ambig</title>
<path fill="#fff3cd" stroke="#7d6608" stroke-width="1.2" d="M546,-330.2016C546,-330.2016 354,-330.2016 354,-330.2016 348,-330.2016 342,-324.2016 342,-318.2016 342,-318.2016 342,-291.3984 342,-291.3984 342,-285.3984 348,-279.3984 354,-279.3984 354,-279.3984 546,-279.3984 546,-279.3984 552,-279.3984 558,-285.3984 558,-291.3984 558,-291.3984 558,-318.2016 558,-318.2016 558,-324.2016 552,-330.2016 546,-330.2016"/>
<text text-anchor="middle" x="450" y="-312.9" font-family="Helvetica,sans-Serif" font-size="9.00" fill="#000000">Ambiguous</text>
<text text-anchor="middle" x="450" y="-302.1" font-family="Helvetica,sans-Serif" font-size="9.00" fill="#000000">(exactly 1 EEE keyword match)</text>
<text text-anchor="middle" x="450" y="-291.3" font-family="Helvetica,sans-Serif" font-size="9.00" fill="#000000">Held for semi&#45;supervised review</text>
</g>
<!-- kw_step&#45;&gt;kw_ambig -->
<g id="edge12" class="edge">
<title>kw_step&#45;&gt;kw_ambig</title>
<path fill="none" stroke="#7d6608" stroke-dasharray="5,2" d="M302.0495,-512C314.2499,-512 322,-512 322,-512 322,-512 322,-317 322,-317 322,-317 334.7195,-317 334.7195,-317"/>
<polygon fill="#7d6608" stroke="#7d6608" points="334.7195,-319.4501 341.7195,-317 334.7194,-314.5501 334.7195,-319.4501"/>
</g>
<!-- train_v1 -->
<g id="node9" class="node">
<title>train_v1</title>
<path fill="#fef9e7" stroke="#7d6608" stroke-width="1.2" d="M290,-445.1003C290,-445.1003 12,-445.1003 12,-445.1003 6,-445.1003 0,-439.1003 0,-433.1003 0,-433.1003 0,-395.6997 0,-395.6997 0,-389.6997 6,-383.6997 12,-383.6997 12,-383.6997 290,-383.6997 290,-383.6997 296,-383.6997 302,-389.6997 302,-395.6997 302,-395.6997 302,-433.1003 302,-433.1003 302,-439.1003 296,-445.1003 290,-445.1003"/>
<text text-anchor="middle" x="151" y="-427.9" font-family="Helvetica,sans-Serif" font-size="9.00" fill="#000000">Initial model training</text>
<text text-anchor="middle" x="151" y="-417.1" font-family="Helvetica,sans-Serif" font-size="9.00" fill="#000000">TF&#45;IDF + elastic&#45;net logistic regression</text>
<text text-anchor="middle" x="151" y="-406.3" font-family="Helvetica,sans-Serif" font-size="9.00" fill="#000000">5&#45;fold CV &#160;| &#160;training set n = 700</text>
<text text-anchor="middle" x="151" y="-395.5" font-family="Helvetica,sans-Serif" font-size="9.00" fill="#000000">(350 EEE + 350 other)</text>
</g>
<!-- kw_step&#45;&gt;train_v1 -->
<g id="edge4" class="edge">
<title>kw_step&#45;&gt;train_v1</title>
<path fill="none" stroke="#000000" d="M151,-504.1523C151,-504.1523 151,-452.2841 151,-452.2841"/>
<polygon fill="#000000" stroke="#000000" points="153.4501,-452.2841 151,-445.2841 148.5501,-452.2842 153.4501,-452.2841"/>
</g>
<!-- train_v1&#45;&gt;kw_neg -->
<!-- semisup -->
<g id="node10" class="node">
<title>semisup</title>
<path fill="#fef9e7" stroke="#7d6608" stroke-width="1.2" d="M290,-335.5003C290,-335.5003 12,-335.5003 12,-335.5003 6,-335.5003 0,-329.5003 0,-323.5003 0,-323.5003 0,-286.0997 0,-286.0997 0,-280.0997 6,-274.0997 12,-274.0997 12,-274.0997 290,-274.0997 290,-274.0997 296,-274.0997 302,-280.0997 302,-286.0997 302,-286.0997 302,-323.5003 302,-323.5003 302,-329.5003 296,-335.5003 290,-335.5003"/>
<text text-anchor="middle" x="151" y="-318.3" font-family="Helvetica,sans-Serif" font-size="9.00" fill="#000000">Semi&#45;supervised Round 1</text>
<text text-anchor="middle" x="151" y="-307.5" font-family="Helvetica,sans-Serif" font-size="9.00" fill="#000000">v1 model applied to ambiguous records;</text>
<text text-anchor="middle" x="151" y="-296.7" font-family="Helvetica,sans-Serif" font-size="9.00" fill="#000000">high&#45;confidence and uncertain subsets exported</text>
<text text-anchor="middle" x="151" y="-285.9" font-family="Helvetica,sans-Serif" font-size="9.00" fill="#000000">for manual review (n = 442 reviewed)</text>
</g>
<!-- train_v1&#45;&gt;semisup -->
<g id="edge5" class="edge">
<title>train_v1&#45;&gt;semisup</title>
<path fill="none" stroke="#000000" d="M151,-383.5786C151,-383.5786 151,-342.7698 151,-342.7698"/>
<polygon fill="#000000" stroke="#000000" points="153.4501,-342.7697 151,-335.7698 148.5501,-342.7698 153.4501,-342.7697"/>
</g>
<!-- semisup&#45;&gt;kw_ambig -->
<!-- review -->
<g id="node11" class="node">
<title>review</title>
<path fill="#d5f5e3" stroke="#1d6a39" stroke-width="1.2" d="M546,-231.3003C546,-231.3003 354,-231.3003 354,-231.3003 348,-231.3003 342,-225.3003 342,-219.3003 342,-219.3003 342,-181.8997 342,-181.8997 342,-175.8997 348,-169.8997 354,-169.8997 354,-169.8997 546,-169.8997 546,-169.8997 552,-169.8997 558,-175.8997 558,-181.8997 558,-181.8997 558,-219.3003 558,-219.3003 558,-225.3003 552,-231.3003 546,-231.3003"/>
<text text-anchor="middle" x="450" y="-214.1" font-family="Helvetica,sans-Serif" font-size="9.00" fill="#000000">Manual review output</text>
<text text-anchor="middle" x="450" y="-203.3" font-family="Helvetica,sans-Serif" font-size="9.00" fill="#000000">Verified EEE: &#160;&#160;n = 235</text>
<text text-anchor="middle" x="450" y="-192.5" font-family="Helvetica,sans-Serif" font-size="9.00" fill="#000000">Verified other: n = 207</text>
<text text-anchor="middle" x="450" y="-181.7" font-family="Helvetica,sans-Serif" font-size="9.00" fill="#000000">Total added: &#160;&#160;&#160;n = 442</text>
</g>
<!-- semisup&#45;&gt;review -->
<g id="edge13" class="edge">
<title>semisup&#45;&gt;review</title>
<path fill="none" stroke="#1d6a39" stroke-dasharray="5,2" d="M302.4109,-292C308.4526,-292 312,-292 312,-292 312,-292 312,-210 312,-210 312,-210 334.9439,-210 334.9439,-210"/>
<polygon fill="#1d6a39" stroke="#1d6a39" points="334.944,-212.4501 341.9439,-210 334.9439,-207.5501 334.944,-212.4501"/>
</g>
<!-- train_v2 -->
<g id="node12" class="node">
<title>train_v2</title>
<path fill="#fef9e7" stroke="#7d6608" stroke-width="1.2" d="M290,-231.3003C290,-231.3003 12,-231.3003 12,-231.3003 6,-231.3003 0,-225.3003 0,-219.3003 0,-219.3003 0,-181.8997 0,-181.8997 0,-175.8997 6,-169.8997 12,-169.8997 12,-169.8997 290,-169.8997 290,-169.8997 296,-169.8997 302,-175.8997 302,-181.8997 302,-181.8997 302,-219.3003 302,-219.3003 302,-225.3003 296,-231.3003 290,-231.3003"/>
<text text-anchor="middle" x="151" y="-214.1" font-family="Helvetica,sans-Serif" font-size="9.00" fill="#000000">Refined model training</text>
<text text-anchor="middle" x="151" y="-203.3" font-family="Helvetica,sans-Serif" font-size="9.00" fill="#000000">Expanded training set n = 1,142</text>
<text text-anchor="middle" x="151" y="-192.5" font-family="Helvetica,sans-Serif" font-size="9.00" fill="#000000">(585 EEE + 557 other)</text>
<text text-anchor="middle" x="151" y="-181.7" font-family="Helvetica,sans-Serif" font-size="9.00" fill="#000000">Test accuracy = 99.6% &#160;| &#160;Sensitivity = 99.1% &#160;| &#160;Specificity = 100%</text>
</g>
<!-- semisup&#45;&gt;train_v2 -->
<g id="edge6" class="edge">
<title>semisup&#45;&gt;train_v2</title>
<path fill="none" stroke="#000000" d="M151,-274.1001C151,-274.1001 151,-238.4405 151,-238.4405"/>
<polygon fill="#000000" stroke="#000000" points="153.4501,-238.4405 151,-231.4405 148.5501,-238.4405 153.4501,-238.4405"/>
</g>
<!-- train_v2&#45;&gt;review -->
<!-- apply -->
<g id="node13" class="node">
<title>apply</title>
<path fill="#fef9e7" stroke="#7d6608" stroke-width="1.2" d="M290,-126.802C290,-126.802 12,-126.802 12,-126.802 6,-126.802 0,-120.802 0,-114.802 0,-114.802 0,-99.598 0,-99.598 0,-93.598 6,-87.598 12,-87.598 12,-87.598 290,-87.598 290,-87.598 296,-87.598 302,-93.598 302,-99.598 302,-99.598 302,-114.802 302,-114.802 302,-120.802 296,-126.802 290,-126.802"/>
<text text-anchor="middle" x="151" y="-109.9" font-family="Helvetica,sans-Serif" font-size="9.00" fill="#000000">03_apply_classifier.R</text>
<text text-anchor="middle" x="151" y="-99.1" font-family="Helvetica,sans-Serif" font-size="9.00" fill="#000000">v2 model applied to all 16,900 clean theses</text>
</g>
<!-- train_v2&#45;&gt;apply -->
<g id="edge7" class="edge">
<title>train_v2&#45;&gt;apply</title>
<path fill="none" stroke="#000000" d="M151,-169.7585C151,-169.7585 151,-133.8589 151,-133.8589"/>
<polygon fill="#000000" stroke="#000000" points="153.4501,-133.8588 151,-126.8589 148.5501,-133.8589 153.4501,-133.8588"/>
</g>
<!-- final -->
<g id="node14" class="node">
<title>final</title>
<path fill="#82e0aa" stroke="#1d6a39" stroke-width="1.2" d="M290,-44.6018C290,-44.6018 12,-44.6018 12,-44.6018 6,-44.6018 0,-38.6018 0,-32.6018 0,-32.6018 0,-11.7982 0,-11.7982 0,-5.7982 6,.2018 12,.2018 12,.2018 290,.2018 290,.2018 296,.2018 302,-5.7982 302,-11.7982 302,-11.7982 302,-32.6018 302,-32.6018 302,-38.6018 296,-44.6018 290,-44.6018"/>
<text text-anchor="middle" x="151" y="-25.5" font-family="Helvetica,sans-Serif" font-size="11.00" fill="#000000">CLASSIFIED THESES — 8 institutions &#160;| &#160;n = 16,900</text>
<text text-anchor="middle" x="151" y="-12.3" font-family="Helvetica,sans-Serif" font-size="11.00" fill="#000000">EEE: n = 1,682 &#160;&#160;&#160;&#160;Other: n = 15,218</text>
</g>
<!-- apply&#45;&gt;final -->
<g id="edge8" class="edge">
<title>apply&#45;&gt;final</title>
<path fill="none" stroke="#000000" d="M151,-87.4856C151,-87.4856 151,-51.505 151,-51.505"/>
<polygon fill="#000000" stroke="#000000" points="153.4501,-51.5049 151,-44.505 148.5501,-51.505 153.4501,-51.5049"/>
</g>
</g>
</svg>

